<svg viewBox="0 0 24 24" xmlns="http://www.w3.org/2000/svg">
<path fill="#F5F5F5" d="M12 9a3 3 0 100 6 3 3 0 000-6zm8.94 2.06l-1.41-.35a7.1 7.1 0 00-.7-1.68l.83-1.24a.75.75 0 00-.09-.94l-1.42-1.42a.75.75 0 00-.94-.09l-1.24.83a7.1 7.1 0 00-1.68-.7l-.35-1.41A.75.75 0 0012.25 3h-2.5a.75.75 0 00-.73.59l-.35 1.41a7.1 7.1 0 00-1.68.7l-1.24-.83a.75.75 0 00-.94.09L3.39 6.38a.75.75 0 00-.09.94l.83 1.24a7.1 7.1 0 00-.7 1.68l-1.41.35A.75.75 0 002 12.25v2.5c0 .36.25.67.59.73l1.41.35c.16.6.4 1.16.7 1.68l-.83 1.24a.75.75 0 00.09.94l1.42 1.42c.26.26.67.29.94.09l1.24-.83c.52.3 1.08.54 1.68.7l.35 1.41c.06.34.37.59.73.59h2.5c.36 0 .67-.25.73-.59l.35-1.41c.6-.16 1.16-.4 1.68-.7l1.24.83c.27.2.68.17.94-.09l1.42-1.42a.75.75 0 00.09-.94l-.83-1.24c.3-.52.54-1.08.7-1.68l1.41-.35c.34-.06.59-.37.59-.73v-2.5a.75.75 0 00-.61-.73z"/>
</svg>